<svg width="13" height="13" viewBox="0 0 13 13" fill="none" xmlns="http://www.w3.org/2000/svg">
<g clip-path="url(#clip0_288_209)">
<path d="M4.69878 2.35184C5.26572 0.549387 7.73428 0.549387 8.30122 2.35184C8.55477 3.15792 9.28195 3.70368 10.1025 3.70368C11.9371 3.70368 12.7 6.12887 11.2157 7.24284C10.5519 7.74103 10.2741 8.62408 10.5277 9.43017C11.0946 11.2326 9.09751 12.7315 7.61322 11.6175C6.94942 11.1193 6.05058 11.1193 5.38678 11.6175C3.90249 12.7315 1.90539 11.2326 2.47234 9.43017C2.72589 8.62408 2.44813 7.74103 1.78433 7.24284C0.300041 6.12887 1.06287 3.70368 2.89755 3.70368C3.71805 3.70368 4.44523 3.15792 4.69878 2.35184Z" fill="#FBC002" stroke="#FBC002" stroke-width="0.407663"/>
</g>
<defs>
<clipPath id="clip0_288_209">
<rect width="13" height="13" fill="white"/>
</clipPath>
</defs>
</svg>
