<svg width="24" height="21" viewBox="0 0 24 21" fill="none" xmlns="http://www.w3.org/2000/svg">
<path d="M21.9539 1.03399C21.9539 1.03399 24.1741 0.168274 23.989 2.27072C23.9274 3.13645 23.3724 6.16645 22.9406 9.44382L21.4605 19.1522C21.4605 19.1522 21.3372 20.5744 20.2271 20.8218C19.117 21.0691 17.4519 19.9561 17.1435 19.7087C16.8968 19.5232 12.5182 16.7406 10.9763 15.3802C10.5446 15.0091 10.0513 14.2671 11.038 13.4014L17.5136 7.2177C18.2536 6.47565 18.9937 4.74422 15.9101 6.84667L7.27606 12.7212C7.27606 12.7212 6.28932 13.3395 4.4392 12.783L0.430527 11.5463C0.430527 11.5463 -1.04959 10.6187 1.47894 9.69113C7.64612 6.78479 15.2317 3.81662 21.9539 1.03399Z" fill="white"/>
</svg>
