<svg width="15" height="14" viewBox="0 0 15 14" fill="none" xmlns="http://www.w3.org/2000/svg">
<path d="M11.9354 3.09684H11.2354V2.37461C11.2354 1.79998 11.0142 1.24888 10.6203 0.842549C10.2265 0.43622 9.69236 0.207947 9.1354 0.207947H2.1354C1.57845 0.207947 1.0443 0.43622 0.650476 0.842549C0.25665 1.24888 0.0354004 1.79998 0.0354004 2.37461V11.0413C0.0354004 11.6159 0.25665 12.167 0.650476 12.5733C1.0443 12.9797 1.57845 13.2079 2.1354 13.2079H11.9354C12.4924 13.2079 13.0265 12.9797 13.4203 12.5733C13.8142 12.167 14.0354 11.6159 14.0354 11.0413V5.2635C14.0354 4.68887 13.8142 4.13777 13.4203 3.73144C13.0265 3.32511 12.4924 3.09684 11.9354 3.09684ZM2.1354 1.65239H9.1354C9.32105 1.65239 9.4991 1.72848 9.63037 1.86393C9.76165 1.99937 9.8354 2.18307 9.8354 2.37461V3.09684H2.1354C1.94975 3.09684 1.7717 3.02074 1.64043 2.8853C1.50915 2.74986 1.4354 2.56616 1.4354 2.37461C1.4354 2.18307 1.50915 1.99937 1.64043 1.86393C1.7717 1.72848 1.94975 1.65239 2.1354 1.65239ZM12.6354 8.87461H11.9354C11.7497 8.87461 11.5717 8.79852 11.4404 8.66308C11.3091 8.52764 11.2354 8.34394 11.2354 8.15239C11.2354 7.96085 11.3091 7.77715 11.4404 7.6417C11.5717 7.50626 11.7497 7.43017 11.9354 7.43017H12.6354V8.87461ZM12.6354 5.98572H11.9354C11.3784 5.98572 10.8443 6.214 10.4505 6.62033C10.0566 7.02665 9.8354 7.57776 9.8354 8.15239C9.8354 8.72703 10.0566 9.27813 10.4505 9.68446C10.8443 10.0908 11.3784 10.3191 11.9354 10.3191H12.6354V11.0413C12.6354 11.2328 12.5617 11.4165 12.4304 11.552C12.2991 11.6874 12.1211 11.7635 11.9354 11.7635H2.1354C1.94975 11.7635 1.7717 11.6874 1.64043 11.552C1.50915 11.4165 1.4354 11.2328 1.4354 11.0413V4.4185C1.66029 4.50013 1.897 4.54165 2.1354 4.54128H11.9354C12.1211 4.54128 12.2991 4.61737 12.4304 4.75281C12.5617 4.88826 12.6354 5.07196 12.6354 5.2635V5.98572Z" fill="black"/>
</svg>
