<svg width="25" height="18" viewBox="0 0 25 18" fill="none" xmlns="http://www.w3.org/2000/svg">
<path d="M9.80026 12.5003L16.0283 8.85742L9.80026 5.21456V12.5003ZM23.6723 2.99242C23.8283 3.56314 23.9363 4.32814 24.0083 5.29956C24.0923 6.27099 24.1283 7.10885 24.1283 7.83742L24.2003 8.85742C24.2003 11.5167 24.0083 13.4717 23.6723 14.7224C23.3723 15.8153 22.6763 16.5196 21.5963 16.8231C21.0323 16.981 20.0003 17.0903 18.4163 17.1631C16.8563 17.2481 15.4283 17.2846 14.1083 17.2846L12.2003 17.3574C7.17226 17.3574 4.04026 17.1631 2.80426 16.8231C1.72426 16.5196 1.02826 15.8153 0.728256 14.7224C0.572256 14.1517 0.464256 13.3867 0.392256 12.4153C0.308256 11.4439 0.272256 10.606 0.272256 9.87742L0.200256 8.85742C0.200256 6.19814 0.392256 4.24314 0.728256 2.99242C1.02826 1.89956 1.72426 1.19528 2.80426 0.891708C3.36826 0.733851 4.40026 0.624565 5.98426 0.551707C7.54426 0.466707 8.97226 0.430279 10.2923 0.430279L12.2003 0.357422C17.2283 0.357422 20.3603 0.551708 21.5963 0.891708C22.6763 1.19528 23.3723 1.89956 23.6723 2.99242Z" fill="white"/>
</svg>
